<svg xmlns="http://www.w3.org/2000/svg" viewBox="0 0 48 48">
  <defs>
    <linearGradient id="g" x1="0" y1="0" x2="1" y2="1">
      <stop offset="0" stop-color="#7b2ff7"/>
      <stop offset="0.55" stop-color="#f107a3"/>
      <stop offset="1" stop-color="#ff8a00"/>
    </linearGradient>
  </defs>
  <path d="M24 4C12.4 4 4 11.9 4 22c0 5.4 2.4 10.2 6.4 13.5L8.6 44l9.2-4.6c2 .5 4 .8 6.2.8 11.6 0 20-7.9 20-18S35.6 4 24 4z" fill="url(#g)"/>
  <path d="M24 31.5s-8.3-4.9-8.3-11a4.6 4.6 0 0 1 8.3-2.7 4.6 4.6 0 0 1 8.3 2.7c0 6.1-8.3 11-8.3 11z" fill="#fff"/>
</svg>
